<svg xmlns="http://www.w3.org/2000/svg"><defs><font id="Oxanium" horiz-adv-x="529"><font-face font-family="Oxanium ExtraLight" ascent="790" descent="-210" alphabetic="0"/><glyph horiz-adv-x="240"/><glyph unicode="!" horiz-adv-x="260" d="M82 0v108h97V0H82Zm6 210v480h84V210H88Z"/><glyph unicode="&quot;" horiz-adv-x="390" d="M70 490v250h74V490H70Zm176 0v250h74V490h-74Z"/><glyph unicode="#" horiz-adv-x="670" d="M50 190v70h134v170H50v70h134v190h74V500h154v190h74V500h134v-70H486V260h134v-70H486V0h-74v190H258V0h-74v190H50Zm208 70h154v170H258V260Z"/><glyph unicode="$" horiz-adv-x="578" d="M69 35v41h288q68 0 68 68v67q0 57-51 67l-195 39Q69 338 69 465v39q0 156 149 156h36v120h70V660h120l45-35v-41H221q-68 0-68-68v-57q0-57 51-67l195-39q110-23 110-148v-49Q509 0 360 0h-36v-120h-70V0H114L69 35Z"/><glyph unicode="%" horiz-adv-x="860" d="M40 380v211q0 99 100 99h81q99 0 99-99V380q0-100-99-100h-81Q40 280 40 380Zm64-8q0-34 34-34h84q34 0 34 34v226q0 34-34 34h-84q-34 0-34-34V372ZM235 30l330 660 60-30L295 0l-60 30Zm305 70v211q0 99 100 99h81q99 0 99-99V100Q820 0 721 0h-81Q540 0 540 100Zm64-8q0-34 34-34h84q34 0 34 34v226q0 34-34 34h-84q-34 0-34-34V92Z"/><glyph unicode="&amp;" horiz-adv-x="660" d="M70 150v106q0 52 33 80l42 35-35 42q-20 24-20 58v69q0 150 150 150h190l40-30v-40H240q-70 0-70-70v-80q0-70 70-70h380v-70H520V0H220Q70 0 70 150Zm80-10q0-70 70-70h220v260H220q-70 0-70-70V140Z"/><glyph unicode="'" horiz-adv-x="214" d="M70 490v250h74V490H70Z"/><glyph unicode="(" horiz-adv-x="311" d="M230-190Q72 23 72 290t158 480l60-46Q152 533 152 290t138-434l-60-46Z"/><glyph unicode=")" horiz-adv-x="311" d="M21-144Q159 47 159 290T21 724l60 46q158-213 158-480T81-190l-60 46Z"/><glyph unicode="*" horiz-adv-x="500" d="m41 516 19 57 158-48v165h64V525l158 48 19-57-156-53 95-135-49-35-99 130-99-130-49 35 95 135-156 53Z"/><glyph unicode="+" horiz-adv-x="578" d="M64 300v70h188v200h74V370h188v-70H326V100h-74v200H64Z"/><glyph unicode="," horiz-adv-x="260" d="m32-125 56 233h81l9-15-84-233-62 15Z"/><glyph unicode="-" horiz-adv-x="360" d="M40 270v70h280v-70H40Z"/><glyph unicode="." horiz-adv-x="260" d="M82 0v108h97V0H82Z"/><glyph unicode="/" horiz-adv-x="390" d="m20-25 281 765 69-25L89-50 20-25Z"/><glyph unicode="0" horiz-adv-x="578" d="M64 153v384q0 153 153 153h144q153 0 153-153V153Q514 0 361 0H217Q64 0 64 153Zm84-9q0-68 68-68h146q68 0 68 68v402q0 68-68 68H216q-68 0-68-68V144Z"/><glyph unicode="1" horiz-adv-x="578" d="M92 0v76h171v538H127v41l45 35h175V76h155V0H92Z"/><glyph unicode="2" horiz-adv-x="578" d="M64 0v210q0 126 110 148l205 41q51 10 51 67v80q0 68-68 68H84v41l45 35h232q153 0 153-153v-65q0-126-110-148l-205-41q-51-10-51-67V76h366V0H64Z"/><glyph unicode="3" horiz-adv-x="578" d="M74 35v41h288q68 0 68 68v112q0 68-68 68H148v76h214q68 0 68 68v78q0 68-68 68H84v41l45 35h232q153 0 153-153v-73q0-40-25-65l-35-35 35-35q25-25 25-65V153Q514 0 361 0H119L74 35Z"/><glyph unicode="4" horiz-adv-x="578" d="M64 129v70l231 491h70l11-20-219-465h273v225h84V0h-84v129H64Z"/><glyph unicode="5" horiz-adv-x="578" d="M54 35v41h308q68 0 68 68v122q0 68-68 68H64v356h420v-76H148V410h213q153 0 153-153V153Q514 0 361 0H99L54 35Z"/><glyph unicode="6" horiz-adv-x="578" d="M64 153v353q0 184 184 184h181l45-35v-41H244q-96 0-96-96V410h213q153 0 153-153V153Q514 0 361 0H217Q64 0 64 153Zm84-9q0-68 68-68h146q68 0 68 68v122q0 68-68 68H148V144Z"/><glyph unicode="7" horiz-adv-x="578" d="M64 614v76h450V515L244 0h-75l-11 20 272 514v80H64Z"/><glyph unicode="8" horiz-adv-x="578" d="M64 153v111q0 40 25 65l35 35-35 35q-25 25-25 65v73q0 153 153 153h144q153 0 153-153v-73q0-40-25-65l-35-35 35-35q25-25 25-65V153Q514 0 361 0H217Q64 0 64 153Zm84-9q0-68 68-68h146q68 0 68 68v112q0 68-68 68H216q-68 0-68-68V144Zm0 324q0-68 68-68h146q68 0 68 68v78q0 68-68 68H216q-68 0-68-68v-78Z"/><glyph unicode="9" horiz-adv-x="578" d="M64 433v104q0 153 153 153h144q153 0 153-153V184Q514 0 330 0H139L94 35v41h240q96 0 96 96v108H217Q64 280 64 433Zm84-9q0-68 68-68h214v190q0 68-68 68H216q-68 0-68-68V424Z"/><glyph unicode=":" horiz-adv-x="260" d="M82 0v108h97V0H82Zm0 410v108h97V410H82Z"/><glyph unicode=";" horiz-adv-x="260" d="m32-125 56 233h81l9-15-84-233-62 15Zm50 535v108h97V410H82Z"/><glyph unicode="&lt;" horiz-adv-x="578" d="M64 296v78l420 201 30-63-378-177 378-177-30-63L64 296Z"/><glyph unicode="=" horiz-adv-x="578" d="M64 190v70h450v-70H64Zm0 220v70h450v-70H64Z"/><glyph unicode="&gt;" horiz-adv-x="578" d="m64 158 378 177L64 512l30 63 420-201v-78L94 95l-30 63Z"/><glyph unicode="?" horiz-adv-x="500" d="M40 614v41l45 35h212q153 0 153-153v-87q0-156-150-156h-46v-84h-84v160h128q68 0 68 68v108q0 68-68 68H40ZM163 0v108h98V0h-98Z"/><glyph unicode="@" horiz-adv-x="800" d="M90 7v536q0 147 147 147h473V60H460q-150 0-150 150v130q0 150 150 150h176v136H237q-73 0-73-73V-3q0-73 73-73h453v-34l-40-30H237Q90-140 90 7Zm300 193q0-70 70-70h170v290H460q-70 0-70-70V200Z"/><glyph unicode="A" horiz-adv-x="630" d="m20 18 226 672h138L610 18 598 0h-69l-57 174H158L101 0H32L20 18Zm163 232h264L327 614h-24L183 250Z"/><glyph unicode="B" horiz-adv-x="644" d="M90 0v690h317q153 0 153-153v-69q0-34-20-58l-35-42 42-35q33-27 33-80V153Q580 0 427 0H90Zm84 76h254q68 0 68 68v112q0 68-68 68H174V76Zm0 324h234q68 0 68 68v78q0 68-68 68H174V400Z"/><glyph unicode="C" horiz-adv-x="610" d="M80 153v384q0 153 153 153h282l45-35v-41H232q-68 0-68-68V144q0-68 68-68h328V35L515 0H233Q80 0 80 153Z"/><glyph unicode="D" horiz-adv-x="680" d="M90 0v690h270q250 0 250-250V250Q610 0 360 0H90Zm84 76h191q161 0 161 161v216q0 161-161 161H174V76Z"/><glyph unicode="E" horiz-adv-x="590" d="M90 0v690h450v-76H174V400h336v-76H174V76h366V0H90Z"/><glyph unicode="F" horiz-adv-x="570" d="M90 0v690h450v-76H174V370h336v-76H174V0H90Z"/><glyph unicode="G" horiz-adv-x="670" d="M80 153v384q0 153 153 153h302l45-35v-41H232q-68 0-68-68V144q0-68 68-68h284v248H346v76h254V0H233Q80 0 80 153Z"/><glyph unicode="H" horiz-adv-x="700" d="M90 0v690h84V400h352v290h84V0h-84v324H174V0H90Z"/><glyph unicode="I" horiz-adv-x="264" d="M90 0v690h84V0H90Z"/><glyph unicode="J" horiz-adv-x="604" d="M60 153v107h84V144q0-68 68-68h156q68 0 68 68v470H210v76h310V153Q520 0 367 0H213Q60 0 60 153Z"/><glyph unicode="K" horiz-adv-x="630" d="M90 0v690h84V336l317 354h77l9-19-238-265L600 19l-8-19h-78L284 345 174 224V0H90Z"/><glyph unicode="L" horiz-adv-x="534" d="M90 0v690h84V76h336V0H90Z"/><glyph unicode="M" horiz-adv-x="863" d="M90 0v690h111l231-490 230 490h111V0h-84v564L471 100h-79L174 564V0H90Z"/><glyph unicode="N" horiz-adv-x="720" d="M90 0v690h93l363-560v560h84V0h-93L174 560V0H90Z"/><glyph unicode="O" horiz-adv-x="700" d="M80 153v384q0 153 153 153h234q153 0 153-153V153Q620 0 467 0H233Q80 0 80 153Zm84-9q0-68 68-68h236q68 0 68 68v402q0 68-68 68H232q-68 0-68-68V144Z"/><glyph unicode="P" horiz-adv-x="630" d="M90 0v690h327q153 0 153-153V407q0-153-153-153H174V0H90Zm84 330h244q68 0 68 68v148q0 68-68 68H174V330Z"/><glyph unicode="Q" horiz-adv-x="700" d="M80 153v384q0 153 153 153h234q153 0 153-153V152Q620 13 489 3l68-133-11-20h-71L399 0H233Q80 0 80 153Zm84-9q0-68 68-68h236q68 0 68 68v402q0 68-68 68H232q-68 0-68-68V144Z"/><glyph unicode="R" horiz-adv-x="640" d="M90 0v690h327q153 0 153-153V427q0-130-111-148L590 20 579 0h-71L369 274H174V0H90Zm84 350h244q68 0 68 68v128q0 68-68 68H174V350Z"/><glyph unicode="S" horiz-adv-x="580" d="M60 35v41h308q68 0 68 68v81q0 57-51 67l-215 44Q60 358 60 483v54q0 153 153 153h242l45-35v-41H212q-68 0-68-68v-68q0-57 51-67l215-43q110-22 110-148v-67Q520 0 367 0H105L60 35Z"/><glyph unicode="T" horiz-adv-x="592" d="M24 614v76h544v-76H338V0h-84v614H24Z"/><glyph unicode="U" horiz-adv-x="688" d="M84 153v537h84V144q0-68 68-68h216q68 0 68 68v546h84V153Q604 0 451 0H237Q84 0 84 153Z"/><glyph unicode="V" horiz-adv-x="620" d="m20 672 12 18h72L298 76h24l195 614h71l12-18L382 0H238L20 672Z"/><glyph unicode="W" horiz-adv-x="920" d="m30 672 13 18h67L254 76h13l151 538h84L652 76h14l144 614h67l13-18L731 0H592L460 478 328 0H189L30 672Z"/><glyph unicode="X" horiz-adv-x="610" d="m30 19 228 336L43 671l9 19h73l180-270 180 270h73l9-19-215-316L580 19l-9-19h-73L305 290 112 0H39l-9 19Z"/><glyph unicode="Y" horiz-adv-x="580" d="m20 672 11 18h71l188-349 188 349h71l11-18-228-416V0h-84v256L20 672Z"/><glyph unicode="Z" horiz-adv-x="600" d="M50 0v67l386 547H60v76h480v-67L154 76h396V0H50Z"/><glyph unicode="[" horiz-adv-x="340" d="M90-180v940h220v-70H170v-800h140v-70H90Z"/><glyph unicode="\" horiz-adv-x="390" d="m20 715 69 25L370-25l-69-25L20 715Z"/><glyph unicode="]" horiz-adv-x="340" d="M30-110h140v800H30v70h220v-940H30v70Z"/><glyph unicode="^" horiz-adv-x="540" d="m40 345 191 345h79l190-345-63-35-167 305-167-305-63 35Z"/><glyph unicode="_" horiz-adv-x="580" d="M40-130h500v-70H40v70Z"/><glyph unicode="`" horiz-adv-x="500" d="m134 710 49 47 129-144-42-41-136 138Z"/><glyph unicode="a" horiz-adv-x="542" d="M203 0Q52 0 52 151t151 151h183v78q0 70-70 70H102v40l40 30h174q150 0 150-150V0H203Zm-71 140q0-70 70-70h184v167H202q-70 0-70-70v-27Z"/><glyph unicode="b" horiz-adv-x="582" d="M80 0v740h80V520h200q150 0 150-150V150Q510 0 360 0H80Zm80 70h200q70 0 70 70v240q0 70-70 70H160V70Z"/><glyph unicode="c" horiz-adv-x="504" d="M72 150v220q0 150 150 150h196l40-30v-40H222q-70 0-70-70V140q0-70 70-70h236V30L418 0H222Q72 0 72 150Z"/><glyph unicode="d" horiz-adv-x="582" d="M72 150v220q0 150 150 150h200v220h80V0H222Q72 0 72 150Zm80-10q0-70 70-70h200v380H222q-70 0-70-70V140Z"/><glyph unicode="e" horiz-adv-x="574" d="M72 150v220q0 150 150 150h130q150 0 150-150V229H152v-89q0-70 70-70h260V30L442 0H222Q72 0 72 150Zm80 144h270v86q0 70-70 70H222q-70 0-70-70v-86Z"/><glyph unicode="f" horiz-adv-x="380" d="M80 0v590q0 150 150 150h90l40-30v-40H230q-70 0-70-70v-80h190v-70H160V0H80Z"/><glyph unicode="g" horiz-adv-x="582" d="M72 150v220q0 150 150 150h280V-50q0-150-150-150H152l-40 30v40h240q70 0 70 70V0H222Q72 0 72 150Zm80-10q0-70 70-70h200v380H222q-70 0-70-70V140Z"/><glyph unicode="h" horiz-adv-x="586" d="M80 0v740h80V520h200q150 0 150-150V0h-80v380q0 70-70 70H160V0H80Z"/><glyph unicode="i" horiz-adv-x="240" d="M76 617v94h88v-94H76ZM80 0v520h80V0H80Z"/><glyph unicode="j" horiz-adv-x="240" d="M-8-140q88 3 88 91v569h80V-40q0-168-168-168v68Zm84 757v94h88v-94H76Z"/><glyph unicode="k" horiz-adv-x="528" d="M80 0v740h80V255l241 265h78l7-15-186-203L500 15l-7-15h-78L247 244l-87-94V0H80Z"/><glyph unicode="l" horiz-adv-x="260" d="M76 142v598h80V134q0-69 70-73V-8Q76-8 76 142Z"/><glyph unicode="m" horiz-adv-x="896" d="M80 0v520h590q150 0 150-150V0h-80v380q0 70-70 70H490V0h-80v450H160V0H80Z"/><glyph unicode="n" horiz-adv-x="586" d="M80 0v520h280q150 0 150-150V0h-80v380q0 70-70 70H160V0H80Z"/><glyph unicode="o" horiz-adv-x="584" d="M72 150v220q0 150 150 150h140q150 0 150-150V150Q512 0 362 0H222Q72 0 72 150Zm80-10q0-70 70-70h140q70 0 70 70v240q0 70-70 70H222q-70 0-70-70V140Z"/><glyph unicode="p" horiz-adv-x="582" d="M80-200v720h280q150 0 150-150V150Q510 0 360 0H160v-200H80Zm80 270h200q70 0 70 70v240q0 70-70 70H160V70Z"/><glyph unicode="q" horiz-adv-x="582" d="M72 150v220q0 150 150 150h280v-720h-80V0H222Q72 0 72 150Zm80-10q0-70 70-70h200v380H222q-70 0-70-70V140Z"/><glyph unicode="r" horiz-adv-x="372" d="M76 0v460q35 60 130 60h100l40-30v-40H217q-42 0-61-23V0H76Z"/><glyph unicode="s" horiz-adv-x="500" d="M60 30v40h231q69 0 69 70 0 71-55 80l-119 20Q60 261 60 377q0 143 150 143h167l40-30v-40H209q-70 0-70-70 0-63 59-73l119-20q124-20 124-143Q441 0 289 0H100L60 30Z"/><glyph unicode="t" horiz-adv-x="392" d="M76 150v540h80V520h190v-70H156V140q0-70 70-70h130V30L316 0h-90Q76 0 76 150Z"/><glyph unicode="u" horiz-adv-x="586" d="M76 150v370h80V140q0-70 70-70h200v450h80V0H226Q76 0 76 150Z"/><glyph unicode="v" horiz-adv-x="520" d="m20 506 9 14h69L250 70h20l152 450h69l9-14L325 0H195L20 506Z"/><glyph unicode="w" horiz-adv-x="785" d="m24 506 10 14h66L206 70h14l127 450h91L565 70h14l107 450h65l10-14L639 0H511L392 428 274 0H146L24 506Z"/><glyph unicode="x" horiz-adv-x="520" d="m30 15 184 250L37 505l7 15h74l142-197 142 197h74l7-15-176-240L490 15l-7-15h-74L260 207 111 0H37l-7 15Z"/><glyph unicode="y" horiz-adv-x="520" d="m20 506 9 14h69L250 70h20l152 450h69l9-14-244-706h-69l-9 14L245 0h-50L20 506Z"/><glyph unicode="z" horiz-adv-x="510" d="M50 0v62l299 388H60v70h390v-62L151 70h309V0H50Z"/><glyph unicode="{" horiz-adv-x="380" d="M50 270v40l90 90v210q0 150 150 150h60v-70h-60q-70 0-70-70V380l-92-90 92-90V-40q0-70 70-70h60v-70h-60q-150 0-150 150v210l-90 90Z"/><glyph unicode="|" horiz-adv-x="274" d="M100-200v940h74v-940h-74Z"/><glyph unicode="}" horiz-adv-x="380" d="M30-110h60q70 0 70 70v240l92 90-92 90v240q0 70-70 70H30v70h60q150 0 150-150V400l90-90v-40l-90-90V-30q0-150-150-150H30v70Z"/><glyph unicode="~" horiz-adv-x="578" d="m49 305 90 89q30 31 70 31t70-31l60-59q16-16 30-16t30 16l80 80 50-50-90-89q-30-31-70-31t-70 31l-60 59q-16 16-30 16t-30-16l-80-80-50 50Z"/><glyph horiz-adv-x="240"/><glyph unicode="¡" horiz-adv-x="260" d="M82 413v107h97V413H82Zm6-583v480h84v-480H88Z"/><glyph unicode="¢" horiz-adv-x="578" d="M94 150v220q0 150 150 150h39v110h66V520h91l40-30v-40H244q-70 0-70-70V140q0-70 70-70h236V30L440 0h-91v-110h-66V0h-39Q94 0 94 150Z"/><glyph unicode="£" horiz-adv-x="578" d="M64 0v76h90v236H64v66h90v159q0 153 153 153h152l45-35v-41H306q-68 0-68-68V378h180v-66H238V76h286V0H64Z"/><glyph unicode="¤" horiz-adv-x="578" d="m58 157 76 76v234l-76 76 43 43 76-76h224l76 76 43-43-76-76V233l76-76-43-43-76 76H177l-76-76-43 43Zm140 124q0-33 32-33h118q32 0 32 33v138q0 33-32 33H230q-32 0-32-33V281Z"/><glyph unicode="¥" horiz-adv-x="578" d="m30 672 11 18h71l177-329 177 329h71l11-18-196-357h129v-56H331v-81h150v-56H331V0h-84v122H97v56h150v81H97v56h129L30 672Z"/><glyph unicode="¦" horiz-adv-x="274" d="M100 170h74v-370h-74v370Zm0 200v370h74V370h-74Z"/><glyph unicode="§" horiz-adv-x="540" d="M81-30h227q72 0 72 70 0 55-33 63l-164 38Q81 164 81 277v136l34 34q-34 33-34 98 0 145 147 145h169l40-30v-40H233q-72 0-72-70 0-55 33-63l163-38q103-23 103-136V177l-34-34q34-33 34-98 0-145-147-145H121L81-70v40Zm80 309q0-59 48-71l171-41v144q0 59-49 71l-170 41V279Z"/><glyph unicode="¨" horiz-adv-x="500" d="M120 614v87h80v-87h-80Zm180 0v87h79v-87h-79Z"/><glyph unicode="©" horiz-adv-x="840" d="M80 96v498q0 96 97 96h487q96 0 96-96V96q0-96-96-96H177Q80 0 80 96Zm60-7q0-35 35-35h490q35 0 35 35v512q0 35-35 35H175q-35 0-35-35V89Zm120 160v192q0 99 99 99h159l32-25v-33H358q-34 0-34-34V242q0-34 34-34h192v-33l-32-25H359q-99 0-99 99Z"/><glyph unicode="ª" horiz-adv-x="400" d="M40 396v37q0 97 103 97h143v68q0 34-34 34H70v33l32 25h149q99 0 99-99V300H143q-103 0-103 96Zm64-4q0-34 34-34h148v119H138q-34 0-34-34v-51Z"/><glyph unicode="«" horiz-adv-x="500" d="m30 315 179 225 51-42-141-183 141-183-51-42L30 315Zm200 0 179 225 51-42-141-183 141-183-51-42-179 225Z"/><glyph unicode="¬" horiz-adv-x="578" d="M64 350v70h450V150h-74v200H64Z"/><glyph unicode="­" horiz-adv-x="360" d="M40 270v70h280v-70H40Z"/><glyph unicode="®" horiz-adv-x="840" d="M80 96v498q0 96 97 96h487q96 0 96-96V96q0-96-96-96H177Q80 0 80 96Zm60-7q0-35 35-35h490q35 0 35 35v512q0 35-35 35H175q-35 0-35-35V89Zm139 61v390h190q99 0 99-99v-47q0-76-59-92l69-137-8-15h-55l-74 145h-98V150h-64Zm64 203h127q34 0 34 34v61q0 34-34 34H343V353Z"/><glyph unicode="¯" horiz-adv-x="500" d="M120 625v64h260v-64H120Z"/><glyph unicode="°" horiz-adv-x="410" d="M60 467v126q0 97 97 97h96q97 0 97-97V467q0-97-97-97h-96q-97 0-97 97Zm60-6q0-37 37-37h96q37 0 37 37v138q0 37-37 37h-96q-37 0-37-37V461Z"/><glyph unicode="±" horiz-adv-x="578" d="M64 0v70h450V0H64Zm0 320v70h188v190h74V390h188v-70H326V130h-74v190H64Z"/><glyph unicode="²" horiz-adv-x="360" d="M40 280v123q0 80 75 95l110 22q31 6 31 36v42q0 34-34 34H52v33l32 25h137q99 0 99-99v-31q0-81-75-96l-110-22q-31-6-31-36v-68h216v-58H40Z"/><glyph unicode="³" horiz-adv-x="360" d="M46 305v33h176q34 0 34 34v56q0 34-34 34H90v58h132q34 0 34 34v44q0 34-34 34H52v33l32 25h137q99 0 99-99v-31q0-27-17-44l-23-23 23-23q17-17 17-44v-47q0-99-99-99H78l-32 25Z"/><glyph unicode="´" horiz-adv-x="500" d="m188 613 129 144 49-47-137-137-41 40Z"/><glyph unicode="µ" horiz-adv-x="586" d="M80-200v720h80V70h200q70 0 70 70v380h80V150Q510 0 360 0H160v-200H80Z"/><glyph unicode="¶" horiz-adv-x="580" d="M70 390v150q0 150 150 150h110V240H220Q70 240 70 390Zm330-560v860h80v-860h-80Z"/><glyph unicode="·" horiz-adv-x="260" d="M82 260v108h97V260H82Z"/><glyph unicode="¸" horiz-adv-x="500" d="M140-122h98q34 0 34 34V35h64V-80q0-100-100-100h-64l-32 25v33Z"/><glyph unicode="¹" horiz-adv-x="360" d="M58 280v58h101v294H79v33l32 25h112V338h91v-58H58Z"/><glyph unicode="º" horiz-adv-x="430" d="M50 399v192q0 99 100 99h131q99 0 99-99V399q0-99-99-99H150q-100 0-100 99Zm64-7q0-34 34-34h134q34 0 34 34v206q0 34-34 34H148q-34 0-34-34V392Z"/><glyph unicode="»" horiz-adv-x="500" d="m40 132 141 183L40 498l51 42 179-225L91 90l-51 42Zm200 0 141 183-141 183 51 42 179-225L291 90l-51 42Z"/><glyph unicode="¼" horiz-adv-x="842" d="M58 280v58h101v294H79v33l32 25h112V338h91v-58H58ZM257 30l330 660 60-30L317 0l-60 30Zm265 42v53l128 285h55l8-14-117-266h142v127h64V0h-64v72H522Z"/><glyph unicode="½" horiz-adv-x="892" d="M58 280v58h101v294H79v33l32 25h112V338h91v-58H58ZM257 30l330 660 60-30L317 0l-60 30ZM572 0v123q0 80 75 95l110 22q31 6 31 36v42q0 34-34 34H584v33l32 25h137q99 0 99-99v-31q0-81-75-96l-110-22q-31-6-31-36V58h216V0H572Z"/><glyph unicode="¾" horiz-adv-x="820" d="M46 305v33h176q34 0 34 34v56q0 34-34 34H90v58h132q34 0 34 34v44q0 34-34 34H52v33l32 25h137q99 0 99-99v-31q0-27-17-44l-23-23 23-23q17-17 17-44v-47q0-99-99-99H78l-32 25ZM235 30l330 660 60-30L295 0l-60 30Zm265 42v53l128 285h55l8-14-117-266h142v127h64V0h-64v72H500Z"/><glyph unicode="¿" horiz-adv-x="480" d="M50-17v87q0 156 150 156h45v84h85V150H202q-68 0-68-68V-26q0-68 68-68h258v-41l-45-35H203Q50-170 50-17Zm189 430v107h98V413h-98Z"/><glyph unicode="À" horiz-adv-x="630" d="m20 18 226 672h138L610 18 598 0h-69l-57 174H158L101 0H32L20 18Zm163 232h264L327 614h-24L183 250Zm16 620 48 47 130-144-42-41-136 138Z"/><glyph unicode="Á" horiz-adv-x="630" d="m20 18 226 672h138L610 18 598 0h-69l-57 174H158L101 0H32L20 18Zm163 232h264L327 614h-24L183 250Zm70 523 130 144 48-47-136-138-42 41Z"/><glyph unicode="Â" horiz-adv-x="630" d="m20 18 226 672h138L610 18 598 0h-69l-57 174H158L101 0H32L20 18Zm163 232h264L327 614h-24L183 250Zm-6 533 138 135 138-135-39-41-99 94-99-94-39 41Z"/><glyph unicode="Ã" horiz-adv-x="630" d="m20 18 226 672h138L610 18 598 0h-69l-57 174H158L101 0H32L20 18Zm163 232h264L327 614h-24L183 250Zm-23 548 53 53q23 23 52 23t52-23l30-30q10-10 17-10t18 10l48 48 39-39-52-52q-23-23-52-23t-53 23l-30 30q-9 10-16 10t-18-10l-49-49-39 39Z"/><glyph unicode="Ä" horiz-adv-x="630" d="m20 18 226 672h138L610 18 598 0h-69l-57 174H158L101 0H32L20 18Zm163 232h264L327 614h-24L183 250Zm3 524v88h79v-88h-79Zm179 0v88h79v-88h-79Z"/><glyph unicode="Å" horiz-adv-x="630" d="m20 18 226 672h138L610 18 598 0h-69l-57 174H158L101 0H32L20 18Zm163 232h264L327 614h-24L183 250Zm30 551v58q0 69 70 69h65q69 0 69-69v-58q0-69-69-69h-65q-70 0-70 69Zm52-3q0-20 21-20h58q22 0 22 20v63q0 21-22 21h-58q-21 0-21-21v-63Z"/><glyph unicode="Æ" horiz-adv-x="890" d="m20 18 226 672h594v-76H504V400h306v-76H504V76h336V0H420v174H158L101 0H32L20 18Zm163 232h237v364H303L183 250Z"/><glyph unicode="Ç" horiz-adv-x="610" d="M80 153v384q0 153 153 153h282l45-35v-41H232q-68 0-68-68V144q0-68 68-68h328V35L515 0H233Q80 0 80 153Zm150-275h98q34 0 34 34V35h64V-80q0-100-100-100h-64l-32 25v33Z"/><glyph unicode="È" horiz-adv-x="590" d="M90 0v690h450v-76H174V400h336v-76H174V76h366V0H90Zm110 870 48 47 130-144-42-41-136 138Z"/><glyph unicode="É" horiz-adv-x="590" d="M90 0v690h450v-76H174V400h336v-76H174V76h366V0H90Zm164 773 130 144 48-47-136-138-42 41Z"/><glyph unicode="Ê" horiz-adv-x="590" d="M90 0v690h450v-76H174V400h336v-76H174V76h366V0H90Zm88 783 138 135 138-135-39-41-99 94-99-94-39 41Z"/><glyph unicode="Ë" horiz-adv-x="590" d="M90 0v690h450v-76H174V400h336v-76H174V76h366V0H90Zm97 774v88h79v-88h-79Zm179 0v88h79v-88h-79Z"/><glyph unicode="Ì" horiz-adv-x="264" d="M90 0v690h84V0H90ZM16 870l48 47 130-144-42-41L16 870Z"/><glyph unicode="Í" horiz-adv-x="264" d="M90 0v690h84V0H90ZM70 773l130 144 48-47-136-138-42 41Z"/><glyph unicode="Î" horiz-adv-x="264" d="M90 0v690h84V0H90ZM-6 783l138 135 138-135-39-41-99 94-99-94-39 41Z"/><glyph unicode="Ï" horiz-adv-x="264" d="M90 0v690h84V0H90ZM3 774v88h79v-88H3Zm179 0v88h79v-88h-79Z"/><glyph unicode="Ð" horiz-adv-x="690" d="M20 312v66h80v312h296q224 0 224-224V224Q620 0 396 0H100v312H20ZM184 76h212q140 0 140 140v258q0 140-140 140H184V378h176v-66H184V76Z"/><glyph unicode="Ñ" horiz-adv-x="720" d="M90 0v690h93l363-560v560h84V0h-93L174 560V0H90Zm121 798 53 53q23 23 52 23t52-23l30-30q10-10 17-10t18 10l48 48 39-39-52-52q-23-23-52-23t-53 23l-30 30q-9 10-16 10t-18-10l-49-49-39 39Z"/><glyph unicode="Ò" horiz-adv-x="700" d="M80 153v384q0 153 153 153h234q153 0 153-153V153Q620 0 467 0H233Q80 0 80 153Zm84-9q0-68 68-68h236q68 0 68 68v402q0 68-68 68H232q-68 0-68-68V144Zm70 726 48 47 130-144-42-41-136 138Z"/><glyph unicode="Ó" horiz-adv-x="700" d="M80 153v384q0 153 153 153h234q153 0 153-153V153Q620 0 467 0H233Q80 0 80 153Zm84-9q0-68 68-68h236q68 0 68 68v402q0 68-68 68H232q-68 0-68-68V144Zm124 629 130 144 48-47-136-138-42 41Z"/><glyph unicode="Ô" horiz-adv-x="700" d="M80 153v384q0 153 153 153h234q153 0 153-153V153Q620 0 467 0H233Q80 0 80 153Zm84-9q0-68 68-68h236q68 0 68 68v402q0 68-68 68H232q-68 0-68-68V144Zm48 639 138 135 138-135-39-41-99 94-99-94-39 41Z"/><glyph unicode="Õ" horiz-adv-x="700" d="M80 153v384q0 153 153 153h234q153 0 153-153V153Q620 0 467 0H233Q80 0 80 153Zm84-9q0-68 68-68h236q68 0 68 68v402q0 68-68 68H232q-68 0-68-68V144Zm31 654 53 53q23 23 52 23t52-23l30-30q10-10 17-10t18 10l48 48 39-39-52-52q-23-23-52-23t-53 23l-30 30q-9 10-16 10t-18-10l-49-49-39 39Z"/><glyph unicode="Ö" horiz-adv-x="700" d="M80 153v384q0 153 153 153h234q153 0 153-153V153Q620 0 467 0H233Q80 0 80 153Zm84-9q0-68 68-68h236q68 0 68 68v402q0 68-68 68H232q-68 0-68-68V144Zm57 630v88h79v-88h-79Zm179 0v88h79v-88h-79Z"/><glyph unicode="×" horiz-adv-x="578" d="m84 180 155 155L84 490l50 50 155-155 155 155 50-50-155-155 155-155-50-50-155 155-155-155-50 50Z"/><glyph unicode="Ø" horiz-adv-x="700" d="M80 153v384q0 153 153 153h234q153 0 153-153V153Q620 0 467 0H233Q80 0 80 153Zm84 63 371 339q-4 59-67 59H232q-68 0-68-68V216Zm1-81q3-59 67-59h236q68 0 68 68v330L165 135Z"/><glyph unicode="Ù" horiz-adv-x="688" d="M84 153v537h84V144q0-68 68-68h216q68 0 68 68v546h84V153Q604 0 451 0H237Q84 0 84 153Zm144 717 48 47 130-144-42-41-136 138Z"/><glyph unicode="Ú" horiz-adv-x="688" d="M84 153v537h84V144q0-68 68-68h216q68 0 68 68v546h84V153Q604 0 451 0H237Q84 0 84 153Zm198 620 130 144 48-47-136-138-42 41Z"/><glyph unicode="Û" horiz-adv-x="688" d="M84 153v537h84V144q0-68 68-68h216q68 0 68 68v546h84V153Q604 0 451 0H237Q84 0 84 153Zm122 630 138 135 138-135-39-41-99 94-99-94-39 41Z"/><glyph unicode="Ü" horiz-adv-x="688" d="M84 153v537h84V144q0-68 68-68h216q68 0 68 68v546h84V153Q604 0 451 0H237Q84 0 84 153Zm131 621v88h79v-88h-79Zm179 0v88h79v-88h-79Z"/><glyph unicode="Ý" horiz-adv-x="580" d="m20 672 11 18h71l188-349 188 349h71l11-18-228-416V0h-84v256L20 672Zm208 101 130 144 48-47-136-138-42 41Z"/><glyph unicode="Þ" horiz-adv-x="630" d="M90 0v690h84V570h243q153 0 153-153V287q0-153-153-153H174V0H90Zm84 210h244q68 0 68 68v148q0 68-68 68H174V210Z"/><glyph unicode="ß" horiz-adv-x="602" d="M80 0v590q0 150 150 150h130q150 0 150-150v-99q0-34-20-58l-35-42 42-35q33-28 33-80V150Q530 0 380 0h-90l-40 30v40h130q70 0 70 70v140q0 70-70 70H260v70h100q70 0 70 70v110q0 70-70 70H230q-70 0-70-70V0H80Z"/><glyph unicode="à" horiz-adv-x="542" d="M203 0Q52 0 52 151t151 151h183v78q0 70-70 70H102v40l40 30h174q150 0 150-150V0H203Zm-71 140q0-70 70-70h184v167H202q-70 0-70-70v-27Zm24 570 49 47 129-144-42-41-136 138Z"/><glyph unicode="á" horiz-adv-x="542" d="M203 0Q52 0 52 151t151 151h183v78q0 70-70 70H102v40l40 30h174q150 0 150-150V0H203Zm-71 140q0-70 70-70h184v167H202q-70 0-70-70v-27Zm78 473 129 144 49-47-137-137-41 40Z"/><glyph unicode="â" horiz-adv-x="542" d="M203 0Q52 0 52 151t151 151h183v78q0 70-70 70H102v40l40 30h174q150 0 150-150V0H203Zm-71 140q0-70 70-70h184v167H202q-70 0-70-70v-27Zm2 483 138 135 138-135-39-41-99 94-99-94-39 41Z"/><glyph unicode="ã" horiz-adv-x="542" d="M203 0Q52 0 52 151t151 151h183v78q0 70-70 70H102v40l40 30h174q150 0 150-150V0H203Zm-71 140q0-70 70-70h184v167H202q-70 0-70-70v-27Zm-15 498 53 53q23 23 52 23t52-23l31-31q9-9 17-9t17 9l49 49 39-39-53-53q-23-22-52-22t-52 22l-31 31q-8 9-16 9t-18-9l-49-49-39 39Z"/><glyph unicode="ä" horiz-adv-x="542" d="M203 0Q52 0 52 151t151 151h183v78q0 70-70 70H102v40l40 30h174q150 0 150-150V0H203Zm-71 140q0-70 70-70h184v167H202q-70 0-70-70v-27Zm10 474v87h80v-87h-80Zm180 0v87h79v-87h-79Z"/><glyph unicode="å" horiz-adv-x="542" d="M203 0Q52 0 52 151t151 151h183v78q0 70-70 70H102v40l40 30h174q150 0 150-150V0H203Zm-71 140q0-70 70-70h184v167H202q-70 0-70-70v-27Zm38 501v58q0 69 69 69h66q69 0 69-69v-58q0-69-69-69h-66q-69 0-69 69Zm52-2q0-21 20-21h59q21 0 21 21v63q0 20-21 20h-59q-20 0-20-20v-63Z"/><glyph unicode="æ" horiz-adv-x="874" d="M203 0Q52 0 52 151t151 151h179v78q0 70-70 70H102v40l40 30h163q81 0 117-49 37 49 118 49h112q150 0 150-150V229H462v-89q0-70 70-70h250V30L742 0H540q-81 0-118 49Q386 0 305 0H203Zm-71 140q0-70 70-70h110q70 0 70 70v97H202q-70 0-70-70v-27Zm330 154h260v86q0 70-70 70H532q-70 0-70-70v-86Z"/><glyph unicode="ç" horiz-adv-x="504" d="M72 150v220q0 150 150 150h196l40-30v-40H222q-70 0-70-70V140q0-70 70-70h236V30L418 0H222Q72 0 72 150Zm102-272h98q34 0 34 34V35h64V-80q0-100-100-100h-64l-32 25v33Z"/><glyph unicode="è" horiz-adv-x="574" d="M72 150v220q0 150 150 150h130q150 0 150-150V229H152v-89q0-70 70-70h260V30L442 0H222Q72 0 72 150Zm80 144h270v86q0 70-70 70H222q-70 0-70-70v-86Zm19 416 49 47 129-144-42-41-136 138Z"/><glyph unicode="é" horiz-adv-x="574" d="M72 150v220q0 150 150 150h130q150 0 150-150V229H152v-89q0-70 70-70h260V30L442 0H222Q72 0 72 150Zm80 144h270v86q0 70-70 70H222q-70 0-70-70v-86Zm73 319 129 144 49-47-137-137-41 40Z"/><glyph unicode="ê" horiz-adv-x="574" d="M72 150v220q0 150 150 150h130q150 0 150-150V229H152v-89q0-70 70-70h260V30L442 0H222Q72 0 72 150Zm80 144h270v86q0 70-70 70H222q-70 0-70-70v-86Zm-3 329 138 135 138-135-39-41-99 94-99-94-39 41Z"/><glyph unicode="ë" horiz-adv-x="574" d="M72 150v220q0 150 150 150h130q150 0 150-150V229H152v-89q0-70 70-70h260V30L442 0H222Q72 0 72 150Zm80 144h270v86q0 70-70 70H222q-70 0-70-70v-86Zm5 320v87h80v-87h-80Zm180 0v87h79v-87h-79Z"/><glyph unicode="ì" horiz-adv-x="240" d="M80 0v520h80V0H80ZM4 710l49 47 129-144-42-41L4 710Z"/><glyph unicode="í" horiz-adv-x="240" d="M80 0v520h80V0H80ZM58 613l129 144 49-47L99 573l-41 40Z"/><glyph unicode="î" horiz-adv-x="240" d="M80 0v520h80V0H80Zm-98 623 138 135 138-135-39-41-99 94-99-94-39 41Z"/><glyph unicode="ï" horiz-adv-x="240" d="M80 0v520h80V0H80Zm-90 614v87h80v-87h-80Zm180 0v87h79v-87h-79Z"/><glyph unicode="ð" horiz-adv-x="584" d="M72 150v150q0 150 150 150h190l-76 123-109-52-26 56 102 49-53 86 65 38 57-91 106 50 26-56-98-47 86-142q20-33 20-83V150Q512 0 362 0H222Q72 0 72 150Zm80-10q0-70 70-70h140q70 0 70 70v240H222q-70 0-70-70V140Z"/><glyph unicode="ñ" horiz-adv-x="586" d="M80 0v520h280q150 0 150-150V0h-80v380q0 70-70 70H160V0H80Zm60 638 53 53q23 23 52 23t52-23l31-31q9-9 17-9t17 9l49 49 39-39-53-53q-23-22-52-22t-52 22l-31 31q-8 9-16 9t-18-9l-49-49-39 39Z"/><glyph unicode="ò" horiz-adv-x="584" d="M72 150v220q0 150 150 150h140q150 0 150-150V150Q512 0 362 0H222Q72 0 72 150Zm80-10q0-70 70-70h140q70 0 70 70v240q0 70-70 70H222q-70 0-70-70V140Zm24 570 49 47 129-144-42-41-136 138Z"/><glyph unicode="ó" horiz-adv-x="584" d="M72 150v220q0 150 150 150h140q150 0 150-150V150Q512 0 362 0H222Q72 0 72 150Zm80-10q0-70 70-70h140q70 0 70 70v240q0 70-70 70H222q-70 0-70-70V140Zm78 473 129 144 49-47-137-137-41 40Z"/><glyph unicode="ô" horiz-adv-x="584" d="M72 150v220q0 150 150 150h140q150 0 150-150V150Q512 0 362 0H222Q72 0 72 150Zm80-10q0-70 70-70h140q70 0 70 70v240q0 70-70 70H222q-70 0-70-70V140Zm2 483 138 135 138-135-39-41-99 94-99-94-39 41Z"/><glyph unicode="õ" horiz-adv-x="584" d="M72 150v220q0 150 150 150h140q150 0 150-150V150Q512 0 362 0H222Q72 0 72 150Zm80-10q0-70 70-70h140q70 0 70 70v240q0 70-70 70H222q-70 0-70-70V140Zm-15 498 53 53q23 23 52 23t52-23l31-31q9-9 17-9t17 9l49 49 39-39-53-53q-23-22-52-22t-52 22l-31 31q-8 9-16 9t-18-9l-49-49-39 39Z"/><glyph unicode="ö" horiz-adv-x="584" d="M72 150v220q0 150 150 150h140q150 0 150-150V150Q512 0 362 0H222Q72 0 72 150Zm80-10q0-70 70-70h140q70 0 70 70v240q0 70-70 70H222q-70 0-70-70V140Zm10 474v87h80v-87h-80Zm180 0v87h79v-87h-79Z"/><glyph unicode="÷" horiz-adv-x="578" d="M64 300v70h450v-70H64Zm180-200v90h90v-90h-90Zm0 380v90h90v-90h-90Z"/><glyph unicode="ø" horiz-adv-x="584" d="M72 150v220q0 150 150 150h140q150 0 150-150V150Q512 0 362 0H222Q72 0 72 150Zm80 21 274 243q-15 36-64 36H222q-70 0-70-70V171Zm6-65q14-36 64-36h140q70 0 70 70v209L158 106Z"/><glyph unicode="ù" horiz-adv-x="586" d="M76 150v370h80V140q0-70 70-70h200v450h80V0H226Q76 0 76 150Zm99 560 49 47 129-144-42-41-136 138Z"/><glyph unicode="ú" horiz-adv-x="586" d="M76 150v370h80V140q0-70 70-70h200v450h80V0H226Q76 0 76 150Zm153 463 129 144 49-47-137-137-41 40Z"/><glyph unicode="û" horiz-adv-x="586" d="M76 150v370h80V140q0-70 70-70h200v450h80V0H226Q76 0 76 150Zm77 473 138 135 138-135-39-41-99 94-99-94-39 41Z"/><glyph unicode="ü" horiz-adv-x="586" d="M76 150v370h80V140q0-70 70-70h200v450h80V0H226Q76 0 76 150Zm85 464v87h80v-87h-80Zm180 0v87h79v-87h-79Z"/><glyph unicode="ý" horiz-adv-x="520" d="m20 506 9 14h69L250 70h20l152 450h69l9-14-244-706h-69l-9 14L245 0h-50L20 506Zm178 107 129 144 49-47-137-137-41 40Z"/><glyph unicode="þ" horiz-adv-x="582" d="M80-200v940h80V520h200q150 0 150-150V150Q510 0 360 0H160v-200H80Zm80 270h200q70 0 70 70v240q0 70-70 70H160V70Z"/><glyph unicode="ÿ" horiz-adv-x="520" d="m20 506 9 14h69L250 70h20l152 450h69l9-14-244-706h-69l-9 14L245 0h-50L20 506Zm110 108v87h80v-87h-80Zm180 0v87h79v-87h-79Z"/><glyph unicode="–" horiz-adv-x="580" d="M40 270v70h500v-70H40Z"/><glyph unicode="—" horiz-adv-x="1000" d="M40 270v70h920v-70H40Z"/><glyph unicode="‘" horiz-adv-x="260" d="m63 517 87 233 60-15-63-233H71l-8 15Z"/><glyph unicode="’" horiz-adv-x="260" d="m56 508 63 232h75l9-14-87-234-60 16Z"/><glyph unicode="‚" horiz-adv-x="260" d="m32-125 63 233h75l9-15-87-233-60 15Z"/><glyph unicode="“" horiz-adv-x="440" d="m63 517 87 233 60-15-63-233H71l-8 15Zm180 0 87 233 60-15-63-233h-76l-8 15Z"/><glyph unicode="”" horiz-adv-x="440" d="m56 508 63 232h75l9-14-87-234-60 16Zm180 0 63 232h75l9-14-87-234-60 16Z"/><glyph unicode="„" horiz-adv-x="440" d="m32-125 63 233h75l9-15-87-233-60 15Zm180 0 63 233h75l9-15-87-233-60 15Z"/><glyph unicode="•" horiz-adv-x="360" d="M86 263v194h189V263H86Z"/><glyph unicode="‹" horiz-adv-x="300" d="m30 315 179 225 51-42-141-183 141-183-51-42L30 315Z"/><glyph unicode="›" horiz-adv-x="300" d="m40 132 141 183L40 498l51 42 179-225L91 90l-51 42Z"/></font>
</defs>
</svg>
